<svg width="262" height="60" viewBox="0 0 262 60" fill="none" xmlns="http://www.w3.org/2000/svg">
<g clip-path="url(#clip0_284_24)">
<path d="M0.125977 57.9218V3.66013H7.24717V25.6495H35.7319V3.66013H42.8531V57.9218H35.7319V31.9774H7.24717V57.9218H0.125977ZM77.7223 58.7127C61.8183 58.7127 51.2156 47.4807 51.2156 30.7118C51.2156 14.022 61.8183 2.86914 77.7223 2.86914C93.6263 2.86914 104.229 14.022 104.229 30.7118C104.229 47.4807 93.6263 58.7127 77.7223 58.7127ZM77.7223 52.3849C89.3535 52.3849 97.1077 43.684 97.1077 30.7118C97.1077 17.8188 89.3535 9.19703 77.7223 9.19703C66.091 9.19703 58.3368 17.8188 58.3368 30.7118C58.3368 43.684 66.091 52.3849 77.7223 52.3849ZM112.631 57.9218V3.66013H132.016C147.525 3.66013 157.89 14.4966 157.89 30.7118C157.89 47.0062 147.525 57.9218 132.016 57.9218H112.631ZM119.752 51.5939H132.016C143.252 51.5939 150.769 43.2094 150.769 30.7118C150.769 18.2934 143.252 9.98801 132.016 9.98801H119.752V51.5939ZM239.072 58.7127C224.908 58.7127 215.413 50.882 215.413 39.2545H222.139C222.139 47.0853 228.944 52.3849 239.072 52.3849C248.25 52.3849 254.422 48.4299 254.422 42.4975C254.422 38.068 250.307 35.5369 238.36 32.7684C224.117 29.4463 219.132 25.6495 219.132 18.0561C219.132 8.95973 227.124 2.86914 239.072 2.86914C249.2 2.86914 257.587 9.11793 259.881 18.4516L253.393 20.0335C251.969 13.5474 246.193 9.19703 239.072 9.19703C231.397 9.19703 226.254 12.7565 226.254 18.0561C226.254 21.8528 229.735 23.9094 239.784 26.2032C255.925 30 261.543 34.1922 261.543 42.4975C261.543 52.2267 252.523 58.7127 239.072 58.7127Z" fill="#37B5B6"/>
<path d="M217.714 26.3594L186.93 31.7672L187.069 28.227L217.714 26.3594Z" fill="#134590"/>
<path d="M157.706 30.2881L188.596 25.5254L188.384 29.0618L157.706 30.2881Z" fill="#134590"/>
<path d="M185.015 0.00585938L191.622 30.5452H188.079L185.015 0.00585938Z" fill="#134590"/>
<path d="M200.091 17.4512L192.836 25.1225L192.102 23.9798L200.091 17.4512Z" fill="#37B5B6"/>
<path d="M176.207 17.8398L185.458 22.9291L184.537 23.9273L176.207 17.8398Z" fill="#37B5B6"/>
<path d="M178.082 40.5218L183.099 31.2324L184.105 32.1457L178.082 40.5218Z" fill="#37B5B6"/>
<path d="M200.044 40.5143L191.643 34.1172L192.702 33.2656L200.044 40.5143Z" fill="#37B5B6"/>
<path d="M188.909 59.7457L185.387 28.6992L188.913 29.0533L188.909 59.7457Z" fill="#134590"/>
<path d="M194.029 6.4668C201.659 8.55772 208.523 15.0661 210.969 22.6052" stroke="#134590" stroke-width="3" stroke-linecap="round"/>
<path d="M188.52 54.9697C198.566 54.6163 207.551 48.049 210.91 37.4766" stroke="#134590" stroke-width="3" stroke-linecap="round"/>
<path d="M180.095 6.28906C152.492 15.0945 158.472 56.0885 188.521 54.9694" stroke="#134590" stroke-width="3" stroke-linecap="round"/>
</g>
<defs>
<clipPath id="clip0_284_24">
<rect width="262" height="60" fill="white"/>
</clipPath>
</defs>
</svg>
